PathFileType	4	(X/Y/Z)	E:\Qualisys_Data\Carbon_Farble_Plate\Data\Amateur_Runner\S14\T3\S14T3V23_c3d.trc
DataRate	CameraRate	NumFrames	NumMarkers	Units	OrigDataRate	OrigDataStartFrame	OrigNumFrames
200.000000	200.000000	5	39	mm	200.000000	178	286
Frame#	Time	LSHO			RSHO			LICST			RICST			LASIS			LHEEL			RASIS			LTROC			RTROC			SACR			LTH1			LSK4			LTH2			LTH3			RHM5			LSK2			LTH4			RTH1			LTOE			RTH2			RTH3			RTH4			LLEP			RLEP			LSK1			LSK3			RSK1			LHM5			RSK2			LFT1			RSK3			RSK4			LLME			RLME			RTOE			RHEEL			RFT1			RFT2			LFT2			
		X1	Y1	Z1	X2	Y2	Z2	X3	Y3	Z3	X4	Y4	Z4	X5	Y5	Z5	X6	Y6	Z6	X7	Y7	Z7	X8	Y8	Z8	X9	Y9	Z9	X10	Y10	Z10	X11	Y11	Z11	X12	Y12	Z12	X13	Y13	Z13	X14	Y14	Z14	X15	Y15	Z15	X16	Y16	Z16	X17	Y17	Z17	X18	Y18	Z18	X19	Y19	Z19	X20	Y20	Z20	X21	Y21	Z21	X22	Y22	Z22	X23	Y23	Z23	X24	Y24	Z24	X25	Y25	Z25	X26	Y26	Z26	X27	Y27	Z27	X28	Y28	Z28	X29	Y29	Z29	X30	Y30	Z30	X31	Y31	Z31	X32	Y32	Z32	X33	Y33	Z33	X34	Y34	Z34	X35	Y35	Z35	X36	Y36	Z36	X37	Y37	Z37	X38	Y38	Z38	X39	Y39	Z39	

179	0.89	767.4585571289062	1410.871704101562	-523.1741333007812	834.4832763671875	1407.30810546875	-227.7070465087891	729.3462524414062	961.435791015625	-494.7134094238281	783.8536987304688	967.61279296875	-218.9422149658203	777.5167846679688	915.0570068359376	-473.4651794433594	569.5850830078125	354.4114990234375	-383.1508483886719	805.4719848632812	923.8436279296876	-239.4993591308594	656.60009765625	842.9117431640625	-510.4898681640625	661.9884643554688	854.6994018554688	-173.4185791015625	615.9458618164062	966.6162109375	-347.4938354492188	853.9848022460938	684.25537109375	-523.1536865234375	747.005126953125	460.1053466796875	-470.4326171875	798.61767578125	636.2677612304688	-492.4758911132812	925.8699951171876	615.5435180664062	-507.4761352539062	461.1197204589844	59.93461990356445	-210.5498352050781	825.8135375976562	517.1498413085938	-493.0761413574219	866.6998901367188	566.83837890625	-480.8441162109375	753.5772705078125	617.9415893554688	-194.2424774169922	736.5269775390625	151.2694244384766	-402.8592834472656	678.7360229492188	634.174560546875	-180.6394958496094	732.2074584960938	523.91943359375	-224.0822143554688	652.1082153320312	538.3571166992188	-202.1707458496094	910.5579833984376	538.64208984375	-505.4146118164062	657.4197998046875	465.7362670898438	-210.6300964355469	875.1025390625	451.6290893554688	-488.3436279296875	793.9937744140625	394.5532836914062	-466.2580261230469	605.9389038085938	351.0794067382812	-212.35205078125	679.6821899414062	193.5885620117188	-464.7925109863281	538.3427124023438	402.8592529296875	-203.0322265625	554.600830078125	326.6114807128906	-356.6877136230469	535.3405151367188	275.0117492675781	-227.0412902832031	478.5457153320312	328.5798034667969	-216.5106201171875	630.4772338867188	327.1788024902344	-439.4950866699219	385.9547119140625	177.3978271484375	-240.0866088867188	526.7327880859375	47.39591598510742	-284.0241394042969	312.7047119140625	176.0956726074219	-293.8564758300781	312.7494201660156	147.5654296875	-322.1031799316406	302.20361328125	156.6163330078125	-271.2000427246094	549.1953125	332.7309875488281	-409.2723388671875
180	0.895	786.6678466796875	1415.138427734375	-523.9759521484375	856.4783935546875	1411.463500976562	-229.7229766845703	750.1932373046875	965.7025756835938	-495.578125	807.0540771484375	971.1658325195312	-219.9399719238281	799.5075073242188	919.4906616210938	-474.0608520507812	603.1505126953125	339.4446105957031	-383.9870910644531	827.93115234375	927.1248168945312	-240.4571685791016	679.685302734375	847.6871337890625	-511.9109802246094	684.0064086914062	858.6357421875	-173.392578125	638.3480224609375	970.0333251953124	-347.6168212890625	877.59033203125	689.8098754882812	-523.1988525390625	775.2052001953125	455.7107238769531	-470.75341796875	822.4946899414062	641.5057373046875	-493.7957763671875	949.994140625	621.3466796875	-506.6568603515625	464.717041015625	61.6740608215332	-209.2193908691406	850.9306030273438	516.7713012695312	-492.5698547363281	890.994873046875	572.4994506835938	-481.7862243652344	768.9448852539062	620.9609375	-195.0561065673828	781.80126953125	146.7672729492188	-404.1998596191406	695.3698120117188	639.0558471679688	-180.7810668945312	745.657958984375	526.9281616210938	-224.0971374511719	666.3556518554688	543.9297485351562	-201.0783386230469	936.6071166992188	542.766357421875	-504.0910949707031	669.1929931640625	471.0841979980469	-209.8050537109375	904.2420654296876	454.0086669921875	-488.22412109375	825.2771606445312	392.4896850585938	-466.510498046875	615.5540771484375	356.6205139160156	-211.1925048828125	722.3972778320312	185.6333160400391	-465.9451293945312	548.7894897460938	409.5157165527344	-202.5244445800781	590.280517578125	310.4919738769531	-357.1720275878906	544.7481079101562	281.4760131835938	-224.6626739501953	488.2205810546875	335.7039489746094	-215.5155639648438	665.4488525390625	316.7578125	-441.3169250488281	395.4608764648438	183.7415771484375	-238.2322845458984	529.2920532226562	46.29521942138672	-283.1451110839844	323.9561767578125	186.5214691162109	-292.0743103027344	321.2941589355469	157.9483947753906	-321.0632934570312	310.4893493652344	167.7397918701172	-269.1863403320312	584.0702514648438	316.5858459472656	-410.453125
181	0.9	806.0219116210938	1419.431762695312	-525.0135498046875	878.3828125	1415.6796875	-232.0399780273438	771.8412475585938	969.9310913085938	-496.4132690429688	829.8850708007812	974.608642578125	-221.3886871337891	821.56884765625	924.5565185546876	-474.8880004882812	635.1948852539062	323.3989868164062	-385.8998107910156	850.6256713867188	930.785400390625	-242.0689239501953	702.378662109375	853.059326171875	-513.5736083984375	705.99462890625	862.2575073242188	-173.6998291015625	660.490234375	973.9844360351562	-348.0318603515625	901.81494140625	695.0393676757812	-523.2255249023438	803.2615966796875	450.6196899414062	-470.2929382324219	846.1464233398438	646.5289306640625	-495.212890625	973.9189453125	626.953125	-506.0264892578125	467.6644592285156	62.68154907226562	-209.0345306396484	875.5055541992188	515.717041015625	-491.7392883300781	914.6170654296876	577.172119140625	-482.1413269042969	784.427734375	623.99365234375	-195.4597930908203	827.4197998046875	143.0128784179688	-405.733642578125	711.56103515625	643.4534301757812	-181.2688598632812	758.7108154296875	530.3861694335938	-225.3644866943359	680.2110595703125	548.7870483398438	-200.6995544433594	961.2880249023438	547.0310668945312	-503.3934020996094	681.2818603515625	476.2603454589844	-209.2510528564453	931.7963256835938	455.89111328125	-488.2647399902344	857.2343139648438	389.4494018554688	-466.6070251464844	625.6450805664062	363.0680541992188	-209.2234649658203	765.5322875976562	178.4013977050781	-466.9635620117188	559.5164184570312	416.3193664550781	-201.6842041015625	626.5278930664062	294.7757568359375	-358.4024963378906	554.5779418945312	287.8461303710938	-222.9233856201172	498.5361938476562	342.4398803710938	-214.2977600097656	701.1099243164062	305.9427185058594	-442.068603515625	405.177001953125	190.4325561523438	-236.9933319091797	531.9868774414062	45.37298202514648	-281.8020935058594	334.828857421875	196.6127319335938	-290.3097229003906	330.6795349121094	168.61767578125	-319.5673522949219	321.0050659179688	178.8092651367188	-267.5456237792969	619.3426513671875	300.5397644042969	-410.5824584960938
182	0.905	825.2005004882812	1423.688232421875	-525.5093994140625	900.497314453125	1419.738525390625	-234.1077728271484	798.8453979492188	975.7727661132812	-494.4244689941406	852.9598999023438	977.9317016601562	-223.1219787597656	843.9059448242188	929.0660400390624	-475.7586975097656	670.6517333984375	308.5068664550781	-386.2544250488281	873.2962646484375	934.171142578125	-243.5434417724609	725.3607788085938	858.13330078125	-515.240234375	727.926513671875	866.4493408203125	-173.7990264892578	682.9981689453125	977.1621704101562	-348.6343688964844	925.6215209960938	700.2506713867188	-523.2302856445312	831.3340454101562	445.1036071777344	-470.3530578613281	869.5953979492188	651.3341064453125	-496.71337890625	997.3427734375	631.5706176757812	-504.8676147460938	471.9099426269531	64.22224426269531	-208.3839874267578	900.1466064453125	514.0829467773438	-491.9443054199219	937.5415649414062	581.620849609375	-483.1188659667969	800.2651977539062	627.1468505859375	-195.9131469726562	872.7659301757812	139.6416625976562	-407.4342041015625	728.0119018554688	648.415283203125	-181.05908203125	772.3909301757812	534.057373046875	-224.3643188476562	694.2046508789062	554.2797241210938	-200.3086853027344	985.5220947265624	550.3289184570312	-502.6082763671875	693.58740234375	481.7239990234375	-208.1925201416016	959.4218139648438	457.4624633789062	-488.1717224121094	888.5171508789062	387.1488952636719	-467.3943176269531	636.3895263671875	369.4729919433594	-207.7669982910156	808.5055541992188	171.3368530273438	-468.3241882324219	570.0985717773438	422.7293090820312	-201.0710144042969	663.4696655273438	278.1815185546875	-358.6175842285156	565.0426025390625	294.3625183105469	-220.8440246582031	508.83740234375	349.5013427734375	-213.7588195800781	736.9568481445312	294.5931396484375	-442.5545043945312	415.8859252929688	196.9803771972656	-235.3327789306641	534.9411010742188	44.42586135864258	-280.892333984375	346.9732971191406	206.7723083496094	-288.1230773925781	340.8978271484375	179.4199981689453	-317.6961059570312	331.5728759765625	189.7566375732422	-265.6870727539062	656.0746459960938	284.8800354003906	-411.4401245117188
183	0.91	844.676513671875	1428.037231445312	-526.0331420898438	922.2752075195312	1423.765991210938	-236.2003173828125	820.3479614257812	980.1840209960938	-495.3103637695312	875.99658203125	981.2877197265624	-224.3150482177734	865.8282470703125	933.9622802734376	-476.7312622070312	706.5703735351562	293.646728515625	-386.8316345214844	895.799560546875	937.2633056640624	-245.4155578613281	748.15478515625	862.9946899414062	-516.8383178710938	749.236083984375	869.9110107421875	-174.1484069824219	705.5020751953125	980.7445068359376	-348.9295349121094	948.9791259765624	704.2836303710938	-523.1162109375	859.6093139648438	439.3607177734375	-470.2622985839844	892.510009765625	655.256103515625	-498.2889404296875	1020.437927246094	636.001708984375	-504.3223571777344	476.6505432128906	66.65104675292969	-207.5730285644531	924.5220336914062	512.193359375	-491.6541442871094	960.4996948242188	586.0628662109375	-484.0186157226562	816.0222778320312	630.3840942382812	-195.8768615722656	917.4937744140624	136.4051208496094	-409.3382873535156	743.2363891601562	653.3361206054688	-179.401123046875	786.359130859375	537.6360473632812	-223.9826354980469	708.4144897460938	560.0845336914062	-199.5355529785156	1009.606262207031	553.0488891601562	-501.8196716308594	705.95361328125	487.1813354492188	-207.7091369628906	986.8311157226562	458.419677734375	-488.5523376464844	919.3564453125	384.4116821289062	-467.3541870117188	647.6790161132812	375.3861083984375	-206.6855316162109	851.359130859375	164.5891265869141	-469.8881530761719	581.6929931640625	429.3683776855469	-200.4213409423828	702.60791015625	263.0267028808594	-358.2971801757812	575.9560546875	300.8346557617188	-219.1213073730469	520.0155639648438	356.16455078125	-212.9148864746094	773.1788940429688	283.6857299804688	-442.78125	426.9490966796875	203.6456146240234	-233.4174194335938	538.2442016601562	43.09576034545898	-280.2404174804688	359.8281555175781	217.3157348632812	-285.4931945800781	352.045654296875	190.7477722167969	-315.8384094238281	344.2738037109375	201.0219116210938	-263.4088134765625	693.0210571289062	268.4486694335938	-411.3561706542969
